<?xml version="1.0" encoding="utf-8"?>
<!-- Generator: Adobe Illustrator 24.0.0, SVG Export Plug-In . SVG Version: 6.00 Build 0)  -->
<svg version="1.1" id="Layer_1" xmlns="http://www.w3.org/2000/svg" xmlns:xlink="http://www.w3.org/1999/xlink" x="0px" y="0px"
	 viewBox="0 0 80.2 116.7" style="enable-background:new 0 0 80.2 116.7;" xml:space="preserve">
<style type="text/css">
	.st0{fill:#0B3D91;}
	.st1{fill:#FFFFFF;}
	.st2{fill:#FC3D21;}
</style>
<circle id="Meatball" class="st0" cx="40.1" cy="67.1" r="40.1"/>
<path class="st1" d="M5.2,67.1c0,0.6-0.5,1.2-1.2,1.2c-0.6,0-1.2-0.5-1.2-1.2c0-0.6,0.5-1.2,1.2-1.2C4.7,65.9,5.2,66.4,5.2,67.1z
	 M76.1,65.9c-0.6,0-1.2,0.5-1.2,1.2c0,0.6,0.5,1.2,1.2,1.2s1.2-0.5,1.2-1.2C77.3,66.4,76.8,65.9,76.1,65.9z M40.1,102.1
	c-0.6,0-1.2,0.5-1.2,1.2s0.5,1.2,1.2,1.2c0.6,0,1.2-0.5,1.2-1.2S40.7,102.1,40.1,102.1z M43.8,86h16.7c-1.2-0.9-3.7-3.3-3.7-5.1
	c0-1.2,0-27.2,0-28.4c0-2.4,2.4-5.2,3.1-5.4c-0.7,0-10.9,0-12,0c1,0.4,3.7,3.3,3.7,5.4c0,1.4,0,19.3,0,19.3L37,47.1H22.8l-2.3-0.3
	L20,42.9l-0.5,3.9l-3.9,0.5l3.9,0.5l0.5,3.9l0.5-3.9l0,0c1.6,1.4,3.3,3.1,3.3,5.1c0,1.1,0.2,26.1,0,28c-0.2,1.9-1.9,4.4-3.7,5.2
	h12.8c-2-1.6-3.9-3.5-3.9-5.4c0-1,0-19.5,0-19.5L43.8,86z"/>
<path class="st2" d="M23.2,86.1c-1.5,2.7-2.7,5-3.4,6.5c-2.1,4.9-4.6,9.9-5.9,18.9l-1.3,0.7c0.8-12.3,7-28.4,11.2-38.3
	c0,3.7,0,6.5-0.1,7.1c-0.2,1.9-1.9,4.4-3.7,5.2H23.2z M29.1,61.5c-0.1,0.1-0.1,0.3-0.2,0.4c0,2.1,0,8.7,0,13.5
	c1.4-2.6,2.8-5.2,4-7.5L29.1,61.5z M46.3,91.7c-0.3-6.9,0-20.7,0.3-25.4c0.2-3.9,0.4-7.5,0.6-10.8l0.2-3l-0.2-20.2
	c0,0-0.3-7.1-2.1-13.7C42.7,10.2,40.2,2.2,40.5,0c-3.5,16.8-2.3,25.9-3,32.1c-0.6,5.1-1.9,10.5-3.3,15.1H37l3.4,5.8
	c3.2-8.6,3.3-16.9,3.3-17.1c0.8,7.1,1.4,13.6,1.4,16.8l-0.1,3c0,0.7-0.1,1.4-0.1,1.9c-0.6,4.5-1.2,27.1-1.3,32.3
	c-0.2,5.2,3,21.3,3.9,26.1l1.4,0.8C46.5,101.7,46.5,97.4,46.3,91.7z"/>
</svg>
